<svg xmlns="http://www.w3.org/2000/svg" fill-rule="evenodd" fill="#000" viewBox="0 0 16 16">
  <path d="m4.7347 2.2071c-4.4257 2.5725-4.4257 9.0374 0 11.61 4.4257 2.5714 9.9878-0.66098 9.9878-5.805 0-5.144-5.5622-8.3764-9.9878-5.805zm-2.641 5.1396c0.47326-1.7082 1.8737-2.5714 3.4577-2.2426-3.3912 3.253 0.3198 8.1838 4.2132 6.3523 1.3232 0.40892 2.2869 0.24773 3.2205 0.03354-3.8891 5.2273-11.526 1.8456-10.891-4.1433zm6.0762 0.04652c-0.47433-1.799-1.1096-2.4243-1.1096-2.4243 3.1175-1.0493 5.9184 3.1178 2.8793 5.6232-0.69433-0.050848-1.4005-1.798-1.7696-3.1989zm0.89286 3.6543c-0.72331 0.23258-1.4209 0.21528-2.0991-0.031365-0.14058-0.73238 0.35951-1.8185 0.84672-2.8982 0.32946 1.1781 0.64497 2.3865 1.2524 2.9295zm-1.4498-3.518c-0.73404 1.5037-1.2245 2.2534-1.4198 3.0723-1.5647-1.0429-1.9177-3.729 0.037563-5.211 0.61384 0.31048 1.0603 1.1921 1.3822 2.1387zm5.5922 2.6472c-0.53872 0.4576-1.2577 0.60581-1.9231 0.60581-0.18673 9.38e-4 -0.37024-0.01081-0.54194-0.03136 2.8202-2.8354-0.068683-7.9512-4.2153-6.2658-1.0635-0.67721-2.3652-0.62853-3.3429-0.0043053 1.5711-2.2361 4.6768-3.3222 7.599-1.8704 3.095 1.5383 4.2604 5.9921 2.4243 7.5661z"/>
</svg>
