<svg xmlns="http://www.w3.org/2000/svg" fill-rule="evenodd" fill="#000" viewBox="0 0 16 16">
  <path d="m12.955 1.1432c-1.7218-0.0243-3.0428 6.7902-3.0064 9.5825 0.57045-1.8793 1.4394-3.0395 2.3562-3.2407-1.5206 1.5877-1.9645 4.3932-1.8096 7.067-0.9755 0.22996-1.7126 0.32389-1.9529 0.13424l8e-3 -0.98321c0.0301 0.1211 0.0745 0.19993 0.14158 0.21237 0.17305-2.1945-0.35114-4.1048-2.226-4.5778 1.1877-0.0629 1.912 0.46451 2.4934 1.7462 0.0388-5.2752 1.7787-10.175 3.9957-10.082 0.34525 0.0144 0.67478 0.24362 0.9952 0.67445-0.28175-0.30087-0.71365-0.52861-0.9952-0.53259zm-8.0357 10.375c-0.46601-1.0532-1.4087-1.9111-2.1307-1.9713 1.0829 0.98261 1.9293 2.9135 1.9404 4.9597-0.21312-0.504-0.18433-0.55323-0.29117-0.82876-0.0169 0.46109 0.0934 0.59184 0.0899 1.276 0.61212 0.0827 1.1891 0.0712 1.6772-0.1789-0.10852-1.5788-0.095-3.0385 1.2523-3.1978-0.70206-0.0596-1.0284 0.0843-1.5191 0.43325-0.15797-2.7521-0.67241-5.6436-1.2091-8.1482 0.11117 3.0082 0.19619 5.7666 0.19021 7.656z"/>
</svg>
