<svg xmlns="http://www.w3.org/2000/svg" fill-rule="evenodd" fill="#000" viewBox="-80 0 450 450">
  <path d="m258 96v45c-9-9-17-15-28-21-6-4-11-6-18-9-17-7-32-10-50-10h-1-7c-19 0-35 4-51 14-10 5-17 11-24 19-4 5-7 10-11 15-12 23-18 44-18 70v10 9c0 26 6 48 19 70 3 6 6 10 10 15 7 8 14 14 24 20 16 9 32 13 51 13h7 1c18 0 33-3 50-10 7-2 12-5 18-8 11-7 19-13 28-21v44c-4 2-7 5-11 7-12 7-23 11-36 15-18 6-33 8-52 8h-1-8c-27 0-49-6-73-19-12-7-21-14-31-24-7-9-13-17-19-27-15-26-22-52-22-83v-9-10c0-30 7-56 22-83 6-10 12-17 19-26 10-10 19-17 32-24 23-14 46-20 73-20h7 2c18 0 34 3 51 8 13 4 24 8 36 15 4 3 7 5 11 7z"/>
</svg>

