<svg xmlns="http://www.w3.org/2000/svg" fill-rule="evenodd" fill="#000" viewBox="0 0 16 16">
  <path d="m8.8906 2.0678v6.3471l1.1388 3.0679h0.76239c0.25934-0.40074 0.70994-0.66618 1.2228-0.66618 0.80405 0 1.4559 0.65181 1.4559 1.4559s-0.65181 1.4559-1.4559 1.4559c-0.48626 0-0.91654-0.23863-1.1809-0.60491h-1.9431v0.94432h5.0416v-12h-5.0416zm4.3408 2.928h-1.4684v1.4684h-0.70312v-1.4684h-1.4685v-0.70313h1.4685v-1.4684h0.70312v1.4684h1.4684v0.70313zm-9.3935-2.4593c0.50794 0 0.95489 0.26029 1.2154 0.65459h1.593v-1.1233h-4.7141v12h4.7141v-6.9845l-0.83578-2.2516h-0.78342c-0.26364 0.37283-0.69782 0.6165-1.1892 0.6165-0.80405 0-1.4559-0.65181-1.4559-1.4559s0.65181-1.4559 1.4559-1.4559zm-1.1196 9.4151h3.1419v0.70313h-3.1419v-0.70313zm10.156 0.32093c0 0.47466-0.38478 0.85945-0.85944 0.85945-0.33732 0-0.62909-0.19443-0.76978-0.47725h-2.0304l-3.0779-8.2917h-1.523c-0.1384 0.28912-0.43365 0.48884-0.77559 0.48884-0.47466 0-0.85945-0.38479-0.85945-0.85945s0.38479-0.85944 0.85945-0.85944c0.35676 0 0.6627 0.21739 0.7927 0.52692h1.9949l3.0779 8.2917h1.5139c0.12718-0.31563 0.4361-0.53851 0.79727-0.53851 0.47466 0 0.85944 0.38478 0.85944 0.85944z"/>
</svg>
