<svg xmlns="http://www.w3.org/2000/svg" fill-rule="evenodd" fill="#000" viewBox="0 0 370 370">
  <path d="m50 103c1-1 3-2 4-3 12-6 22-10 35-13v-39c6-4 12-6 19-8 12-4 22-7 34-9h17v60h64v31h-64v123c-1 2-1 4-1 6 0 13 3 23 8 34 3 4 5 6 9 8s9 4 14 4c1 0 1 0 2-1v1c7-1 13-1 20-2 7 0 13-2 20-4l3 15c-3 4-6 6-10 8-1 1-2 1-2 1-7 4-13 7-20 9-8 4-15 6-24 7-9 3-17 3-27 3-1 1-3 1-5 1-11 0-21-3-31-9-4-2-7-4-11-8-2-3-4-5-6-9-7-11-10-23-10-36 0-2 0-4 1-7v-144h-39v-19zm220 192v-1c0-7 2-12 5-18 2-3 4-6 7-8 2-2 4-4 6-5 7-4 14-6 21-6h2 2c8 0 15 2 22 6 2 1 4 3 6 5 3 2 5 5 7 8 4 6 5 12 5 18v1 2c0 6-1 11-5 17-2 3-4 6-7 9-2 1-4 2-6 4-7 4-14 6-22 6h-2-2c-8 0-14-2-21-6-2-1-4-3-6-4-3-3-5-5-7-9-3-5-5-11-5-17v-2z"/>
</svg>
