<?xml version="1.0" encoding="UTF-8"?>
<svg xmlns="http://www.w3.org/2000/svg" fill-rule="evenodd" fill="#000" viewBox="0 0 16 16">
  <path d="m14.266 10.562zm0-0.03382zm0 0.03382zm0.03606 0.20283c-0.1082-1.386-0.25246-2.7721-0.39672-4.1581-0.072135-0.64231-0.10819-1.2846-0.18032-1.9269-0.036057-0.33806-0.072134-0.67611-0.072134-1.0142v-0.13522c0-0.40567-0.07213-0.70992-0.14426-1.0818-0.10819-0.06761-0.18032-0.13522-0.32458-0.20283-0.28852-0.16903-0.57704-0.23664-0.93769-0.23664h-0.07213-8.4753s-1.1541 0.033828-1.3705 0.5747c-0.1082 0.64231-0.18033 1.1832-0.18033 1.8255-0.07213 0.70992-0.14426 1.4536-0.21639 2.1636-0.10819 1.386-0.25246 2.7721-0.36065 4.1243-0.14426 1.4875 0.79343 1.5213 2.2 1.5213h6.1672 3.1737 0.18032c0.25246 0 0.46885-0.03382 0.64918-0.16903 0.07213-0.03383 0.10819-0.03383 0.18032-0.10142 0 0 0.03606-0.03383 0.03606-0.06761 0.14426-0.20284 0.21639-0.43947 0.21639-0.67611 0-0.16903-0.03606-0.30425-0.07213-0.43947zm-3.859-2.6368c-0.03606 0.27045-0.14426 0.50708-0.28852 0.77753-0.14426 0.23664-0.28852 0.40567-0.54098 0.5747-0.072135 0.033785-0.10819 0.06761-0.18032 0.10142-0.18033 0.10142-0.36066 0.16903-0.57705 0.23664-0.32459 0.06761-0.61311 0.10142-0.9377 0.10142-0.28853 0-0.54098-0.033828-0.82951-0.10142-0.36065-0.033828-0.64917-0.10142-0.97376-0.23664-0.072134 0-0.10819-0.033828-0.18032-0.067615-0.1082-0.067609-0.18033-0.10142-0.28853-0.20283-0.036058-0.033785-0.072134-0.06761-0.10819-0.13522-0.036058-0.06761-0.072134-0.13522-0.072134-0.20283v-0.067609c0-0.10142 0-0.16903 0.072134-0.23664 0 0 0-0.033828 0.036058-0.067609 0.072134-0.033829 0.1082-0.10142 0.18033-0.13523 0.1082-0.06761 0.21639-0.06761 0.32459-0.10142h0.036058c0.18033 0 0.32459 0.033828 0.46885 0.10142 0.39672 0.13522 0.68524 0.20283 1.082 0.27044 0.072125 0.033785 0.18033 0.033785 0.25246 0.033785 0.21639 0 0.43278-0.033785 0.61311-0.13522 0.10819-0.06761 0.18032-0.16903 0.25245-0.27044l0.036058-0.033828c0.036058-0.10142 0.072134-0.20283 0.072134-0.33806 0-0.10142-0.036058-0.16903-0.072134-0.27044-0.072135-0.10142-0.14426-0.16903-0.28852-0.23664-0.072134-0.033828-0.18033-0.067615-0.28853-0.10142-0.39672-0.10142-0.8295-0.23664-1.0098-0.27045-0.2164-0.06761-0.36066-0.10142-0.54098-0.20283-0.32459-0.16903-0.54098-0.37186-0.75737-0.64231-0.036058-0.13522-0.072134-0.27045-0.072134-0.40567v-0.13522c0.036058-0.23664 0.10819-0.43947 0.21639-0.64231 0.036058-0.033828 0.036058-0.067615 0.072134-0.067615 0.14426-0.16903 0.32459-0.27044 0.50491-0.37186 0.43278-0.23664 0.86557-0.33806 1.3705-0.33806 0.18033 0 0.28852 0 0.46885 0.033828 0.32459 0.033785 0.61311 0.067609 0.9377 0.20283 0.072125 0.033785 0.10819 0.033785 0.18032 0.067609 0.1082 0.067615 0.18033 0.13522 0.25246 0.20283 0.03606 0.067615 0.03606 0.10142 0.07213 0.16903v0.033785c0 0.067615-0.03606 0.13522-0.07213 0.20284-0.03606 0.06761-0.07213 0.10142-0.14426 0.13522-0.03606 0-0.03606 0.033828-0.03606 0.033828-0.07213 0.033828-0.14426 0.067609-0.25245 0.067609-0.21639 0-0.39672-0.033785-0.61311-0.10142-0.28852-0.10142-0.54098-0.16902-0.8295-0.16902h-0.072134-0.072134c-0.1082 0-0.18033 0.033785-0.28853 0.10142-0.072134 0.033828-0.14426 0.10142-0.18032 0.16903-0.072134 0.10142-0.1082 0.16903-0.1082 0.27045v0.067609c0.036058 0.033785 0.036058 0.033785 0.036058 0.067615 0.072134 0.067609 0.10819 0.13522 0.18032 0.16903 0.036058 0 0.036058 0 0.072134 0.033828 0.14426 0.067609 0.25246 0.10142 0.39672 0.13522 0.18033 0.067609 0.39672 0.10142 0.57705 0.16903 0.36065 0.067609 0.64917 0.16903 0.9377 0.33806 0.28853 0.13522 0.50492 0.30425 0.72131 0.54089 0.03606 0 0.03606 0.033828 0.07213 0.067609 0.10819 0.20284 0.18033 0.40567 0.18033 0.64231v0.16903zm3.8229 2.434v0.20283-0.20283zm0.1082 1.6903c0 0.27045-0.07213 0.98036-0.07213 1.0818 0 0.13522-0.03606 0.23664-0.1082 0.33806-0.07213 0.10142-0.14426 0.16903-0.25245 0.23664-0.14426 0.10142-0.32459 0.13523-0.54098 0.13523h-8.4753-2.4885c-0.14426 0-0.25245-0.03383-0.36065-0.10142-0.072131-0.03383-0.14426-0.06762-0.18032-0.10142-0.072131-0.06762-0.1082-0.10142-0.14426-0.16903-0.036059-0.10142-0.072131-0.16903-0.072131-0.23664l-0.14426-1.1832c0.1082 0.13522 0.25246 0.23664 0.39672 0.33806 0.25246 0.06762 0.46885 0.10142 0.72131 0.13522 0.072134 0 10.495 0 10.82-0.03378 0.18032 0 0.36065-0.03378 0.54098-0.13522 0.14426-0.06761 0.25245-0.16903 0.36065-0.30425z"/>
</svg>
