<svg xmlns="http://www.w3.org/2000/svg" fill-rule="evenodd" fill="#000" viewBox="-128 0 16 16">
  <path d="m-123 4.2928c0.45147 0.38766 4.0149 0.50108 5.6626 0.18253 0.82096-0.16301 1.026-0.46365-1.1045-0.63976-0.10811 0-0.13292-8e-3 -0.13292-0.0496 0-0.0248 0.26317-1.0771 0.26317-1.0771 0.36718-0.38833 1.0095-1.0648 1.5591-1.6836 0.0279-0.1245-0.30171-0.39033-0.39874-0.32387l-1.6894 1.7695-0.33228 1.2959c-2.4062-0.0172-4.1516 0.20975-3.8271 0.5259zm4.8248 10.018 0.1276-2.2454 0.35976-0.64818c-1.4797 0.43143-2.9447 0.41805-4.4868-8e-3l0.39076 0.67831 0.16349 2.229c0.39613 0.49526 3.0381 0.50438 3.4452-6e-3zm0.66317-3.3351c0.0377-0.18701 0.2854-2.3967 0.28008-2.3998-5e-3 -5e-3 -0.0944 0.0607-0.19671 0.14665-0.22152 0.18829-0.35917 0.26386-0.52265 0.26652-0.2404 0.0136-0.44755-0.14349-0.0396-0.60147 0.23526-0.29064 0.27425-0.34602 0.27425-0.4045-0.015-0.15681-0.4032 0.0573-0.61983 0.44615-0.0939 0.14665-0.3376 0.70312-0.45944 1.0496-0.0944 0.26849-0.18254 0.39299-0.27425 0.39299-0.0527 0-0.14133-0.0665-0.14133-0.10545 0-0.0722 0.0886-0.2964 0.25209-0.6535 0.10545-0.22684 0.19096-0.41824 0.19096-0.42355-0.15541 0.0891-0.30573 0.27584-0.55957 0.2964-0.1051 9e-3 -0.21621-0.0665-0.21621-0.12716 0-0.0501 5e-3 -0.0527-0.1688 0.0443-0.26317 0.14399-0.41248 0.0913-0.41248-0.14975v-0.11077c-0.22799 0.27079-0.555 0.44433-0.7585 0.28533-0.0995-0.0778-0.097-0.26052 8e-3 -0.57597 0.19095-0.56488 0.3376-0.78641 0.46786-0.70312 0.0802 0.0501 0.0665 0.13026-0.0607 0.39299-0.21887 0.45147-0.2326 0.66457-0.0386 0.60919 0.18564-0.0527 0.40717-0.34336 0.56223-0.73103 0.0417-0.1081 0.0939-0.21621 0.11918-0.24368 0.0607-0.0691 0.15241-0.0501 0.18298 0.0385 0.0195 0.058 0 0.13557-0.1081 0.4014-0.0886 0.21621-0.13557 0.37128-0.13557 0.45413-3e-3 0.11918 0 0.12449 0.0775 0.11918 0.0997-8e-3 0.26007-0.11342 0.28222-0.1883 0.086-0.27956 0.72527-1.8413 0.77534-1.8967 0.0549-0.10191 0.21583-0.0375 0.22728 0.047 3e-3 0.14209-0.64139 1.56-0.74166 1.9521-0.0763 0.28322 0.71294-0.35223 0.73369-0.53741 0.10544-0.32121 0.18253-0.41248 0.2964-0.35178 0.0833 0.0359 0.0224 0.15972 0.0416 0.21886 0.15566-0.0965 0.39152-0.43062 0.69515-0.24899 0.32628 0.1947-0.31144 0.8256-0.40982 0.99952 0.0762 0.10826 0.48044-0.26634 0.69248-0.45723 0.12106-0.59129 0.27515-2.2515 0.43198-3.7464-1.0318 0.39422-4.82 0.46416-6.2308-7e-3 0 0.0918 0.34271 3.2951 0.36127 3.3498 5e-3 0.0222 0.0332-0.0195 0.0607-0.0997 0.24633-0.68938 0.73634-1.2738 1.1519-1.3708 0.20204-0.047 0.35444 3e-3 0.51793 0.16614 0.17988 0.17988 0.21311 0.37393 0.0749 0.44837-0.0691 0.0359-0.13557-0.0137-0.22418-0.17457-0.19095-0.3407-0.54539-0.16082-0.92774 0.47628-0.40406 0.66989-0.50951 1.4124-0.20203 1.4124 0.11342 0 0.38766-0.2162 0.57862-0.45412 0.13025-0.16615 0.17988-0.25741 0.25209-0.47096 0.047-0.14399 0.10235-0.27691 0.1245-0.2933 0.0413-0.0368 0.18859-0.10119 0.20203 0.11652 5e-3 0.0698-3e-3 0.15082-0.0361 0.23851-0.20481 0.53677-0.32951 1.1711-0.49824 1.52-0.0607 0.0859-0.14665 0.0802-0.18563-8e-3 -0.0279-0.058-0.0195-0.11918 0.058-0.37926 0.0501-0.17146 0.0997-0.33494 0.1081-0.36551 8e-3 -0.0359-0.0554 0.0111-0.17456 0.12184-0.27691 0.25741-0.5485 0.36551-0.70888 0.27956-0.047-0.0248-0.0527-0.0195-0.0527 0.047 0 0.21045 0.19937 2.0992 0.22418 2.1293 1.6197 0.75933 3.9576 0.33505 4.5807 0.10691 0.20285-0.0743 0.21785-0.29368 0.21785-0.29368z"/>
</svg>
