<svg xmlns="http://www.w3.org/2000/svg" fill-rule="evenodd" fill="#000" viewBox="0 0 16 16">
  <path d="m14.917 12.365c-0.0732-0.87792-0.81352-8.456-0.81352-8.456-0.0435-0.68228-0.39826-0.96786-0.69436-1.0876-0.0645-0.65028-0.56515-0.79531-0.73095-0.79531-0.16961 0-8.8217-3e-3 -9.4267-3e-3 -0.67632 0-0.7783 0.51522-0.7783 0.51522l-0.0297 0.30317c-0.55308 0.22899-0.55327 0.74668-0.55327 0.74668s-0.92379 8.6462-0.92379 9.6011c0 0.95492 0.81406 0.92172 0.81406 0.92172h11.998c1.39 0 1.2116-0.8684 1.1384-1.7463zm-9.4237-4.0028c0.10821-0.28303 0.60232-0.38774 0.8901-0.29264 5e-3 2e-3 0.37337 0.15677 0.98766 0.24386 0.71736 0.10167 1.2997-0.16896 1.3169-0.45115 4e-3 -0.0721 0.11584-0.45725-0.21338-0.63405-0.24998-0.13425-0.5257-0.19937-0.9023-0.29873-0.43442-0.11464-0.87105-0.14507-1.2315-0.34751-0.65988-0.37059-0.71941-0.68282-0.71941-1.0059 0-0.41951 0.39903-0.89206 0.79257-1.134 0.75674-0.46509 1.9804-0.46694 2.6947-0.15851 0.2782 0.12013 0.63535 0.30901 0.51522 0.58721-0.12014 0.27819-0.60555 0.3873-0.88158 0.26216-0.50917-0.23082-1.1312-0.18627-1.379-0.0456-0.16023 0.0909-0.73938 0.66781 0.62546 0.9146 0.45256 0.0818 1.0044 0.17361 1.3821 0.37279 0.74696 0.39397 0.92431 0.98422 0.90231 1.3656-0.0366 0.63405-0.43613 1.0135-0.86573 1.3047-0.41695 0.28256-1.0057 0.39823-1.5514 0.39823-0.98946 4e-5 -1.8078-0.23972-2.0273-0.34336-0.27403-0.12941-0.49383-0.32312-0.33531-0.73769zm8.4829 3.9841s-0.2297 0.52139-0.74087 0.52139h-10.664c-0.51116 0-0.74086-0.52139-0.74086-0.52139l-0.15663-1.4463c0.0337 0.23595 0.19894 0.57763 0.87467 0.57763h10.657c0.7132 0 0.89121-0.40061 0.93571-0.63057l-0.16503 1.4993z"/>
</svg>
