<svg xmlns="http://www.w3.org/2000/svg" fill-rule="evenodd" fill="#000" viewBox="0 0 450 450">
  <path d="m401 138v-69h15v66l32-9v36c-11 3-21 6-32 9v90l32-9v36c-11 3-21 6-32 9v65h-15v-61c-21 6-43 12-64 18v69h-15v-65c-10 3-21 6-32 8v-36c11-3 22-6 32-9v-90c-10 3-21 6-32 9v-36c11-3 22-6 32-9v-65h15v61c21-6 43-12 64-18zm-64 55v89l64-18v-89l-64 18zm-261-107c21-10 40-14 63-14 7 0 13 0 20 1 16 2 30 6 44 15 11 6 18 12 27 21 5 6 10 12 14 20 6 10 10 20 13 31l-38 9c-2-8-5-15-10-22-8-14-17-24-31-32-13-6-26-9-41-9-12 0-23 2-34 6-5 2-8 4-12 6-15 8-25 19-33 33-4 7-7 14-9 22-5 19-8 36-8 55 0 14 1 26 4 40 2 14 6 25 13 36 6 12 14 21 25 29 2 2 4 3 6 4 15 9 30 13 48 13 9 0 17-1 26-4 7-1 12-4 18-7 12-7 21-16 28-28 1-1 1-3 2-4 6-12 9-22 12-34 13 3 26 7 39 10-3 15-8 27-15 40-8 14-16 24-28 34-5 4-10 7-15 11-20 11-39 16-62 16h-6-5c-24 0-43-5-63-17-10-5-17-11-25-18-7-9-13-16-18-26-13-23-20-44-23-70-1-10-1-18-1-27 0-26 4-47 12-72 3-6 5-11 9-16 12-21 27-36 47-48 3-2 4-3 7-4z"/>
</svg>
