<svg xmlns="http://www.w3.org/2000/svg" fill-rule="evenodd" fill="#000" viewBox="0 0 16 16">
  <path d="m11.37 12.618h-6.6741c-0.71378 0-1.2978-0.584-1.2978-1.2978v-6.6741c0-0.71378 0.58401-1.2978 1.2978-1.2978h6.6741c0.71378 0 1.2978 0.584 1.2978 1.2978v6.6741c0 0.71378-0.58401 1.2978-1.2978 1.2978zm-1.0896-6.9196h-4.383v4.383h4.383v-4.383zm-4.2613-4.6805h-0.81624v1.9624h0.81624v-1.9624zm1.6373 0h-0.81624v1.9624h0.81624v-1.9624zm1.6373 0h-0.81624v1.9624h0.81624v-1.9624zm1.6373 0h-0.81624v1.9624h0.81624v-1.9624zm-7.901 9.0148h-1.9972v0.81624h1.9972v-0.81624zm0-1.6373h-1.9972v0.81623h1.9972v-0.81623zm0-1.6373h-1.9972v0.81623h1.9972v-0.81623zm0-1.6373h-1.9972v0.81624h1.9972v-0.81624zm12.003 4.912h-1.9972v0.81624h1.9972v-0.81624zm0-1.6373h-1.9972v0.81623h1.9972v-0.81623zm0-1.6373h-1.9972v0.81623h1.9972v-0.81623zm0-1.6373h-1.9972v0.81624h1.9972v-0.81624zm-9.0139 7.9348h-0.81624v1.9624h0.81624v-1.9624zm1.6373 0h-0.81624v1.9624h0.81624v-1.9624zm1.6373 0h-0.81624v1.9624h0.81624v-1.9624zm1.6373 0h-0.81624v1.9624h0.81624v-1.9624zm-5.7542-8.513c0-0.33554-0.36573-0.54638-0.65675-0.37861-0.29101 0.16776-0.29101 0.58947 0 0.75723 0.29102 0.16777 0.65675-0.04305 0.65675-0.37862z"/>
</svg>
