<svg xmlns="http://www.w3.org/2000/svg" fill-rule="evenodd" fill="#000" viewBox="0 0 16 16">
  <path d="m8.3188 3.5216c-0.34343 0.00117-0.67139 0.032667-0.95998 0.086567-0.85012 0.15857-1.0045 0.49046-1.0045 1.1025v0.80834h2.0089v0.26945h-2.0089-0.75394c-0.58385 0-1.0951 0.3705-1.255 1.0753-0.18445 0.80788-0.19264 1.312 0 2.1556 0.1428 0.62791 0.48383 1.0753 1.0677 1.0753h0.69071v-0.96902c0-0.70007 0.57372-1.3176 1.255-1.3176h2.0066c0.55857 0 1.0045-0.48555 1.0045-1.0778v-2.0196c0-0.57479-0.45928-1.0066-1.0045-1.1025-0.3451-0.060667-0.70318-0.0882-1.0466-0.086567zm-1.0864 0.65014c0.2075 0 0.37697 0.18184 0.37697 0.4054 0 0.22279-0.16947 0.40294-0.37697 0.40294-0.20825 0-0.37697-0.18016-0.37697-0.40294 0-0.22357 0.16872-0.4054 0.37697-0.4054zm3.388 1.6167v0.94183c0 0.73019-0.58636 1.3448-1.255 1.3448h-2.0066c-0.54964 0-1.0045 0.49665-1.0045 1.0778v2.0196c0 0.57479 0.47342 0.91288 1.0045 1.0778 0.63592 0.19741 1.2457 0.23309 2.0066 0 0.50576-0.1546 1.0045-0.46573 1.0045-1.0778v-0.80834h-2.0066v-0.26944h2.0066 1.0045c0.58386 0 0.80142-0.42996 1.0045-1.0753 0.20974-0.66439 0.20082-1.3033 0-2.1556-0.14428-0.61364-0.41987-1.0753-1.0045-1.0753h-0.75394zm-1.1286 5.1146c0.20826 0 0.37697 0.18016 0.37697 0.40293 0 0.22358-0.16871 0.4054-0.37697 0.4054-0.2075 0-0.37696-0.18182-0.37696-0.4054 0-0.22278 0.16946-0.40293 0.37696-0.40293zm-1.2798-9.9362c-2.2058 0-3.9905 0.68479-5.3477 2.0478-1.2845 1.2848-1.927 2.8621-1.927 4.738 0 1.9957 0.59255 3.6571 1.7812 4.9834 1.3107 1.4852 3.1269 2.2307 5.4576 2.2307 2.3511 0 4.1934-0.74557 5.5273-2.2307 0.35706-0.39079 0.66073-0.81146 0.91276-1.2604h-2.7172c-0.7038 1.3773-1.9269 2.0718-3.6701 2.0835-1.5577 0.021933-2.7264-0.62859-3.5053-1.9452-0.6103-1.0332-0.91278-2.32-0.91278-3.8614 0-3.3611 1.4533-5.1161 4.3652-5.2578 1.5751 0.061017 2.7407 0.65043 3.4905 1.7667 0.14274 0.20733 0.26766 0.42815 0.37821 0.6603h2.8925c-0.31779-0.69545-0.765-1.3304-1.3417-1.9073-1.3833-1.363-3.1779-2.0478-5.3836-2.0478z"/>
</svg>
