<svg xmlns="http://www.w3.org/2000/svg" width="16" height="16" viewBox="0 0 16 16">
  <defs>
    <style>
      .i-color {
        fill: #000;
        fill-rule: evenodd;
      }
    </style>
  </defs>
  <path id="file_type_nsis.svg" class="i-color" d="M14.22,13.884V7.835l-3.1,3.025Zm-3.286-3.2,3.1-3.025H7.83Zm3.1-3.276-3.1-3.025-0.909.886L7.83,7.405h6.208ZM7.519,7.353L9.071,5.841l1.552-1.513H4.415Zm6.7-.126V1.178L11.117,4.2Zm-3.6-3.151-3.1-3.025L6.61,1.938,4.415,4.077h6.208ZM7.208,1H1L4.1,4.025l0.909-.886ZM1.78,2.116v6.05l0.541-.528,2.562-2.5Zm3.286,3.2-3.1,3.025H8.17Zm-3.1,3.276,1.9,1.85L5.066,11.62l3.1-3.025H1.962ZM1.78,8.773v6.05l3.1-3.025Zm6.7-.126-3.1,3.025h6.208Zm-3.1,3.276,3.1,3.025,2.09-2.037,1.013-.987H5.377Zm4.428,2.089L8.792,15H15l-3.1-3.025Z" transform="translate(0 -1)"/>
</svg>
