<svg xmlns="http://www.w3.org/2000/svg" width="16" height="16" viewBox="0 0 16 16">
    <defs>
    <style>
      .i-color {
        fill: #000;
        fill-rule: evenodd;
      }
    </style>
  </defs>
  <path id="file_type_circleci.svg" class="i-color" d="M4.01479198,6.21714306 C4.68707608,4.777143 6.17073886,3.79428578 7.86304061,3.79428578 C10.2044444,3.79428578 12.1053876,5.66857147 12.1053876,7.97714329 C12.1053876,10.2857151 10.2044444,12.1599998 7.86304061,12.1599998 C6.14755659,12.1599998 4.68707656,11.1542854 4.01479173,9.73714256 C3.96657373,9.61330128 3.86384317,9.48476219 3.66705843,9.48571396 L0.398365065,9.48571396 C0.0997896807,9.49438477 -0.0538227754,9.75757027 0.0274495215,9.96571446 C0.931556158,13.4399996 4.10752081,16 7.88622288,16 C12.3603911,16 16,12.4114284 16,8 C16,3.58857155 12.3603911,0 7.88622288,0 C4.10752081,0 0.919965021,2.60571408 0.0158584006,6.03428602 C-0.063083407,6.2734375 0.166542845,6.46857166 0.398365065,6.46857166 L3.66705867,6.46857166 C3.82933431,6.46857166 3.93812606,6.37705946 4.01479198,6.21714306 L4.01479198,6.21714306 Z M6.92198365,9.64181805 C5.6421309,8.91431618 5.64213041,7.0856843 6.92198316,6.35818148 C8.20183591,5.63067866 9.81033764,6.54499435 9.81033764,8 C9.81033764,9.45500565 8.20183591,10.3693209 6.92198365,9.64181805 L6.92198365,9.64181805 Z"></path>
</svg>
