<svg xmlns="http://www.w3.org/2000/svg" width="16" height="16" viewBox="0 0 16 16">
  <defs>
    <style>
      .i-color {
        fill: #000;
        fill-rule: evenodd;
      }
    </style>
  </defs>
  <path id="file_type_elm.svg" class="i-color" d="M8,7.60351562 L11.0214844,4.59570312 L4.96484375,4.59570312 L8,7.60351562 Z M1.36914062,1 L4.43164062,4.03515625 L11.0488281,4.03515625 L8,1 L1.36914062,1 Z M8.36914062,8 L11.6777344,11.28125 L14.9863281,7.98632812 L11.6914062,4.67773438 L8.36914062,8 Z M15,7.22070312 L15,1 L8.765625,1 L15,7.22070312 Z M7.60351562,8 L1,1.36914062 L1,14.6035156 L7.60351562,8 Z M12.046875,11.6777344 L15,14.6035156 L15,8.73828125 L12.046875,11.6777344 Z M8,8.36914062 L1.36914062,15 L14.6035156,15 L8,8.36914062 Z"/>
</svg>