<svg xmlns="http://www.w3.org/2000/svg" width="16px" height="16px" viewBox="0 0 16 16">
  <defs>
    <style>
      .i-color {
        fill: #000;
        fill-rule: evenodd;
      }
    </style>
  </defs>
  <path id="file_type_editorconfig.svg" class="i-color" d="M4.64823251,2.17698652 C4.64823251,2.72780405 4.90196376,3.21705953 5.29377084,3.52404873 C3.63260584,3.79057977 1.76392822,5.10719731 1.33041863,6.2533894 C0.733378697,5.91507624 0.0002178687,6.27650685 0.0002178687,6.8709453 C-0.0154069188,7.43482917 0.812706841,7.93708644 1.47341664,7.38182707 C1.63424261,7.59605862 1.86814566,7.77941854 2.15100105,7.92759711 C2.14401682,8.1746418 2.14101679,8.88730837 2.23890622,9.02010022 C2.36701377,9.19395586 3.76021369,9.18021908 3.81807215,9.02289364 C3.85019667,8.93552517 3.87010272,8.55821984 3.88233693,8.35406632 C4.33383091,8.37320949 4.79699619,8.33144485 5.23117788,8.22093152 C5.1547571,8.39948971 5.0930701,8.70048558 5.14477308,9.04839027 C3.68654187,10.065195 2.87517865,12.2328167 4.34915884,14.1193114 C3.43332751,14.4578908 2.54423006,14.942933 2.5778702,15.5429139 C3.89174302,15.5142808 8.6566313,15.5429139 8.6566313,15.5429139 C8.94806464,15.5429139 9.22484191,15.5031411 9.48538573,15.4285783 C21.4123326,13.8138742 9.36818414,4.16594183 16,1.22823446 C8.29952722,2.67672854 18.8798047,12.7600974 10.9272872,14.245147 C12.9072705,12.4384531 12.2280159,6.92021624 8.97861104,4.4407376 C9.81850629,4.2872354 10.4578095,3.52035696 10.4578095,2.59857188 C10.4827853,1.25171516 8.91493707,0.0168744146 7.5342875,1.15305042 C6.64907508,-0.0729319401 4.70537286,0.454681776 4.64823251,2.17698652 L4.64823251,2.17698652 L4.64823251,2.17698652 Z"></path>
</svg>
