<svg width="16" height="16" viewBox="0 0 16 16" xmlns="http://www.w3.org/2000/svg"><defs><style>.i-color { fill: #000; fill-rule: evenodd; }</style></defs><path id="file_type_stylelint.svg" class="i-color" d="M8.11 15.655C9.86 9.238 9.807 9.21 11.072 4.633l.304.18c.165.098.3.018.3-.177V2.453c.337-1.205.6-2.137.677-2.416h1.37L16 2.2l-1.495 1.324 1.13 1.254-7.45 10.877c-.037.062-.088.048-.076 0z"/><path d="M8.923 1.823c.068 0 .122.038.122.086v1.117c0 .046-.055.084-.122.084h-1.84c-.068 0-.123-.037-.123-.084V1.91c0-.05.055-.088.122-.088h1.84zM11.195.585l-2.025 1.2c.023.036.038.078.038.124v1.117c0 .057-.023.11-.06.15l2.046 1.213c.14.083.254.016.254-.15V.736c0-.165-.114-.232-.254-.15zM6.797 3.028v-1.12c0-.045.015-.088.038-.124L4.81.584c-.14-.082-.254-.015-.254.15V4.24c0 .165.115.233.255.15l2.047-1.21c-.036-.044-.058-.096-.058-.153z"/><path d="M7.816 15.655h.075C6.144 9.238 6.194 9.21 4.93 4.633l-.304.18c-.165.098-.3.018-.3-.177V2.453c-.337-1.205-.6-2.137-.677-2.416h-1.37L0 2.2l1.495 1.324L.365 4.78l7.45 10.875z"/><ellipse cx="7.944" cy="4.881" rx=".553" ry=".567"/><ellipse cx="7.944" cy="8.251" rx=".553" ry=".567"/><ellipse cx="7.944" cy="11.622" rx=".553" ry=".567"/></svg>
